<svg id="Layer_1" enable-background="new 0 0 511.993 511.993" height="512" viewBox="0 0 511.993 511.993" width="512" xmlns="http://www.w3.org/2000/svg"><g><path d="m255.996 446.35h107.504v-91.35h-127.504z" fill="#f66"/><path d="m148.261 355h107.735v91.35h-107.735z" fill="#f96"/><path d="m509.739 417.427-35.559-178.763c-9.992-50.239-54.424-86.704-105.648-86.704h-112.536l-20 120 20 114.39h76.257l25.115 72.435c6.26 18.056 18.839 33.232 35.421 42.734 12.054 6.908 25.626 10.474 39.34 10.474 5.149 0 10.321-.503 15.438-1.521 20.73-4.123 38.614-16.072 50.356-33.646 11.742-17.575 15.939-38.669 11.816-59.399z" fill="#e62e6b"/><path d="m143.461 151.96c-51.223 0-95.655 36.464-105.648 86.704l-35.559 178.763c-4.124 20.729.073 41.824 11.815 59.398s29.626 29.523 50.356 33.646c18.743 3.728 38.197.55 54.778-8.953 16.581-9.501 29.161-24.678 35.421-42.734l25.115-72.435h76.257v-234.389z" fill="#f66"/><path d="m405.996 241.96h-30v-30h-30v30h-30v30h30v30h30v-30h30z" fill="#fff5f5"/><g fill="#03232e"><path d="m104.772 241.96h30v30h-30z"/><path d="m164.772 241.96h30v30h-30z"/><path d="m134.772 211.96h30v30h-30z"/><path d="m134.772 271.96h30v30h-30z"/></g><path d="m195.996 301.96h30v30h-30z" fill="#fff2b3"/><path d="m285.996 301.96h30v30h-30z" fill="#ffe666"/><path d="m285.996 241.96h-30l-10 15 10 15h30z" fill="#e6e6f2"/><path d="m225.996 241.96h30v30h-30z" fill="#fff5f5"/><path d="m346.846 67.631 21.213-21.213c-29.934-29.933-69.731-46.418-112.063-46.418l-10 15 10 15c34.319 0 66.583 13.364 90.85 37.631z" fill="#24b383"/><path d="m325.632 88.844c-19.198-19.199-44.417-28.798-69.636-28.798l-10 14.954 10 15.032c17.536 0 35.072 6.675 48.423 20.025z" fill="#24b383"/><g fill="#2ee66b"><path d="m143.934 46.418 21.213 21.213c24.267-24.267 56.531-37.631 90.849-37.631v-30c-42.331 0-82.129 16.485-112.062 46.418z"/><path d="m186.361 88.844 21.213 21.213c13.35-13.35 30.886-20.025 48.423-20.025v-29.986c-25.219 0-50.438 9.599-69.636 28.798z"/></g></g></svg> 